<?xml version="1.0" encoding="UTF-8" standalone="no"?>
<!-- Created with Inkscape (http://www.inkscape.org/) -->

<svg
   xmlns:dc="http://purl.org/dc/elements/1.1/"
   xmlns:cc="http://creativecommons.org/ns#"
   xmlns:rdf="http://www.w3.org/1999/02/22-rdf-syntax-ns#"
   xmlns:svg="http://www.w3.org/2000/svg"
   xmlns="http://www.w3.org/2000/svg"
   xmlns:sodipodi="http://sodipodi.sourceforge.net/DTD/sodipodi-0.dtd"
   xmlns:inkscape="http://www.inkscape.org/namespaces/inkscape"
   width="1712.0328mm"
   height="443.8038mm"
   viewBox="0 0 6066.2581 1572.5332"
   id="svg2"
   version="1.1"
   inkscape:version="0.91 r13725"
   sodipodi:docname="logo.svg">
  <defs
     id="defs4" />
  <sodipodi:namedview
     id="base"
     pagecolor="#ffffff"
     bordercolor="#666666"
     borderopacity="1.0"
     inkscape:pageopacity="0.0"
     inkscape:pageshadow="2"
     inkscape:zoom="0.04375"
     inkscape:cx="7440.1119"
     inkscape:cy="175.25316"
     inkscape:document-units="px"
     inkscape:current-layer="layer1"
     showgrid="false"
     fit-margin-top="0"
     fit-margin-left="0"
     fit-margin-right="0"
     fit-margin-bottom="0"
     inkscape:window-width="1366"
     inkscape:window-height="705"
     inkscape:window-x="-8"
     inkscape:window-y="-8"
     inkscape:window-maximized="1" />
  <metadata
     id="metadata7">
    <rdf:RDF>
      <cc:Work
         rdf:about="">
        <dc:format>image/svg+xml</dc:format>
        <dc:type
           rdf:resource="http://purl.org/dc/dcmitype/StillImage" />
        <dc:title></dc:title>
      </cc:Work>
    </rdf:RDF>
  </metadata>
  <g
     inkscape:label="Layer 1"
     inkscape:groupmode="layer"
     id="layer1"
     transform="translate(4218.5617,-1821.5757)">
    <path
       style="fill:#000000"
       d="m -3619.5504,3390.3972 c -4.3999,-3.0796 -15.5407,-10.0686 -53.0899,-33.3051 -4.7275,-2.9255 -12.0934,-7.2975 -16.3686,-9.7155 -4.2751,-2.418 -15.8791,-9.8111 -25.7865,-16.429 -9.9074,-6.6179 -23.9292,-15.7813 -31.1595,-20.363 -16.4824,-10.4446 -43.2147,-28.406 -61.6854,-41.4463 -7.7865,-5.4972 -19.055,-13.2915 -25.041,-17.3204 -5.986,-4.0291 -15.3147,-10.899 -20.7303,-15.2667 -10.6451,-8.585 -21.6199,-17.1754 -42.2062,-33.0365 -33.9833,-26.1831 -57.2652,-46.7339 -96.7747,-85.4227 -27.7941,-27.2167 -60.1607,-64.5 -78.6673,-90.6175 -3.547,-5.0056 -8.0946,-11.3764 -10.1059,-14.1573 -2.0113,-2.7809 -4.7311,-6.8764 -6.0439,-9.1011 -1.3129,-2.2247 -3.1871,-4.9551 -4.1649,-6.0674 -4.3184,-4.9127 -17.3817,-27.17 -28.8414,-49.1404 -19.6488,-37.6704 -36.6159,-77.4398 -44.4413,-104.1664 -2.0187,-6.8947 -5.1829,-17.5415 -7.0315,-23.6595 -5.0023,-16.5554 -9.2644,-33.2444 -11.105,-43.4832 -0.8998,-5.0056 -2.3132,-11.1488 -3.1409,-13.6516 -0.8276,-2.5029 -2.3862,-12.2866 -3.4635,-21.7416 -1.0773,-9.4551 -2.432,-19.682 -3.0105,-22.7265 -3.0969,-16.2992 -6.3603,-58.3253 -8.0899,-104.1836 -0.9939,-26.3503 -1.4181,-87.7069 -0.6007,-86.8821 0.359,0.3623 20.3905,88.1126 22.3726,98.0057 1.4459,7.2167 8.1281,23.4132 19.3407,46.8787 6.3405,13.2692 12.6006,25.5558 13.9114,27.3034 1.3108,1.7476 6.4941,10.4583 11.5184,19.3572 10.5019,18.6007 23.2526,36.7124 46.1817,65.5989 32.7562,41.2669 82.2935,88.6534 133.0105,127.2352 15.5113,11.8 28.1928,21.0072 35.382,25.6888 3.059,1.9921 8.0646,5.3194 11.1236,7.3942 3.059,2.0747 8.2922,5.3048 11.6292,7.1779 3.3371,1.8731 12.8933,7.7906 21.236,13.1499 8.3427,5.3593 21.5393,13.0892 29.3258,17.1774 7.7866,4.0883 15.8403,8.4831 17.8972,9.7661 4.1396,2.5821 56.4452,28.9028 66.0354,33.2295 16.1565,7.2894 34.4032,15.2297 44.1033,19.1922 5.9028,2.4113 13.0682,5.5677 15.9229,7.0144 2.8548,1.4466 8.9465,3.9389 13.5372,5.5383 16.3057,5.6813 35.6942,12.9314 38.6838,14.4655 1.6685,0.8562 5.7504,2.3381 9.0707,3.2931 3.3203,0.955 7.739,2.6046 9.8193,3.6659 4.87,2.4845 8.6404,2.3634 12.583,-0.404 32.9722,-23.1442 88.7484,-71.7081 125.7917,-109.5258 48.6525,-49.6697 80.7657,-95.0845 91.9718,-130.0678 4.184,-13.0618 5.4252,-23.7521 4.6095,-39.7021 -0.6557,-12.8213 -0.7768,-13.3548 -4.8996,-21.5968 -4.7206,-9.4369 -12.8303,-18.9096 -23.646,-27.6202 -7.2909,-5.8718 -27.9281,-16.8469 -36.4208,-19.369 -2.7946,-0.8299 -6.429,-2.2059 -8.0764,-3.0578 -4.7177,-2.4396 -27.0644,-7.5045 -38.645,-8.7588 -5.7961,-0.6278 -14.6697,-1.9929 -19.7191,-3.0335 -5.0494,-1.0406 -16.6891,-2.61 -25.8661,-3.4875 -9.1769,-0.8775 -21.9185,-2.2482 -28.3146,-3.046 -15.9014,-1.9836 -27.6395,-2.8164 -121.8539,-8.646 -123.5398,-7.6441 -146.7078,-9.7339 -191.1236,-17.2398 -20.9484,-3.5401 -29.8653,-5.6805 -60.8093,-14.5966 -38.6982,-11.1504 -51.42,-16.679 -84.8087,-36.8557 -32.1036,-19.4001 -36.7911,-23.0532 -62.262,-48.522 -24.5054,-24.5033 -41.7992,-45.0328 -55.2585,-65.5976 -4.2588,-6.5071 -9.9317,-15.0877 -12.6065,-19.068 -7.2132,-10.7338 -18.661,-32.5819 -24.2906,-46.3586 -6.4516,-15.7885 -12.5407,-33.502 -13.4291,-39.0664 -0.3879,-2.4292 -1.7778,-8.7398 -3.0887,-14.0235 -2.5359,-10.2211 -4.6735,-30.4837 -6.6977,-63.4885 -1.1109,-18.1132 -1.0025,-25.1772 1.015,-66.1204 3.3275,-67.5264 4.0765,-79.8713 5.7267,-94.3798 0.8224,-7.2304 2.1884,-21.7922 3.0356,-32.3596 0.8472,-10.5674 2.199,-23.9916 3.004,-29.8315 0.8051,-5.8398 2.1809,-18.1264 3.0574,-27.3033 0.8765,-9.177 2.0423,-18.5056 2.5907,-20.7304 0.5484,-2.2247 1.8478,-10.5083 2.8874,-18.4079 1.8182,-13.8153 2.0305,-14.5341 5.5652,-18.8478 4.9635,-6.0573 20.9977,-20.7083 33.9534,-31.0244 5.8399,-4.65 13.4957,-10.9556 17.013,-14.0124 6.0335,-5.2435 12.2595,-9.7673 35.9317,-26.1081 14.0638,-9.7082 23.3068,-15.7812 31.4935,-20.6926 3.8932,-2.3357 10.9466,-6.5932 15.6741,-9.461 13.4343,-8.1497 46.2898,-25.8796 51.9275,-28.0218 2.8004,-1.064 6.339,-2.8229 7.8636,-3.9084 1.5246,-1.0856 4.5085,-2.6049 6.6309,-3.3761 2.1224,-0.7713 8.2655,-3.4814 13.6512,-6.0224 15.2382,-7.1896 53.9817,-22.1458 73.6347,-28.4253 4.7275,-1.5105 11.7809,-3.8 15.6742,-5.0877 13.0726,-4.3238 37.5504,-11.0137 53.5955,-14.648 5.0056,-1.1339 11.3764,-2.7201 14.1573,-3.5251 2.7809,-0.805 10.7444,-2.4091 17.6966,-3.5646 6.9522,-1.1556 14.2699,-2.5304 16.2615,-3.0552 1.9915,-0.5249 11.5477,-2.0928 21.2359,-3.4845 l 17.615,-2.5301 116.2087,-0.01 c 100.6454,0 117.7774,0.2103 127.9214,1.6026 37.4521,5.1404 86.6409,15.1758 113.8474,23.2268 4.4494,1.3167 9.455,2.6817 11.1236,3.0332 4.161,0.8767 17.1086,4.9856 43.9887,13.9597 32.6419,10.8978 36.5554,12.3085 48.1521,17.3581 5.7311,2.4955 13.7372,5.721 17.7913,7.1677 4.0542,1.4468 10.3291,4.1521 13.9443,6.0119 3.6151,1.8597 9.0758,4.3458 12.1348,5.5246 15.3095,5.8996 73.3343,35.9019 101.1236,52.2869 26.1775,15.4348 79.0096,49.9906 88.9887,58.2048 3.059,2.518 8.8497,7.0092 12.8681,9.9804 25.2974,18.7051 43.1175,32.8243 47.5526,37.6769 l 5.1114,5.5928 0.6199,10.3921 c 0.6913,11.5916 0.6676,10.8243 7.7145,249.0439 2.7805,93.9943 5.3086,183.8679 5.6178,199.7191 l 0.5624,28.8202 -2.1219,-2.5281 c -1.167,-1.3905 -4.6629,-7.0787 -7.7687,-12.6405 -3.1058,-5.5618 -6.9648,-12.3041 -8.5756,-14.9829 -1.6108,-2.6788 -2.9288,-5.32 -2.9288,-5.8693 0,-0.5493 -2.8866,-5.6385 -6.4147,-11.3092 -3.5281,-5.6708 -10.2106,-16.6813 -14.8498,-24.4678 -12.6289,-21.1963 -51.0772,-74.3865 -66.1444,-91.5055 -3.3717,-3.8309 -11.8186,-13.4477 -18.7708,-21.3706 -24.7484,-28.204 -30.9729,-34.9846 -48.4963,-52.8292 -25.0416,-25.5006 -47.276,-46.3053 -67.8043,-63.4448 -18.3268,-15.3014 -44.1647,-35.1432 -50.8401,-39.0421 -2.1067,-1.2304 -5.7481,-3.8008 -8.092,-5.712 -2.344,-1.9112 -7.1532,-5.2275 -10.6873,-7.3696 -3.534,-2.1421 -8.3121,-5.1388 -10.6179,-6.6595 -2.3059,-1.5206 -5.3301,-3.3227 -6.7206,-4.0047 -1.3904,-0.6819 -5.0309,-2.8968 -8.0898,-4.9219 -5.7361,-3.7975 -25.7199,-14.8249 -37.5717,-20.7329 -3.701,-1.8449 -7.0054,-3.8014 -7.3431,-4.3479 -0.3377,-0.5464 -2.0878,-1.3119 -3.889,-1.7011 -1.8012,-0.3891 -7.5979,-2.7558 -12.8816,-5.2592 -5.2837,-2.5035 -12.7922,-5.8138 -16.6854,-7.3564 -17.0231,-6.7448 -28.6372,-11.0364 -32.8652,-12.1443 -2.5028,-0.6557 -5.7666,-1.8206 -7.2529,-2.5885 -6.5912,-3.4054 -52.5684,-14.7706 -67.0729,-16.5799 -5.0057,-0.6244 -11.604,-1.766 -14.663,-2.5369 -10.0229,-2.5259 -28.2679,-3.5377 -63.8535,-3.5412 -35.4274,0 -50.4825,0.8471 -62.6837,3.5415 -3.6882,0.8144 -11.4242,2.1505 -17.191,2.969 -13.3328,1.8922 -46.791,11.3736 -63.4078,17.9685 -15.0763,5.9834 -41.3833,18.9889 -54.1821,26.7861 -11.7721,7.1719 -35.4147,26.1789 -45.1781,36.3201 -8.6011,8.934 -20.9989,25.2067 -27.3523,35.901 -2.3147,3.8961 -6.248,12.6304 -8.7407,19.4095 -4.4347,12.0604 -4.5341,12.5975 -4.6199,24.966 -0.072,10.3011 0.3382,14.1316 2.2135,20.6974 2.0789,7.279 3.4496,10.5053 8.6064,20.2577 2.8546,5.3983 16.0716,17.7116 26.5523,24.7366 18.8323,12.623 51.2277,22.6809 97.983,30.421 6.6742,1.1048 13.4975,2.4719 15.163,3.0378 1.6655,0.566 10.2574,1.9444 19.0933,3.0632 8.8358,1.1188 18.8495,2.6788 22.2527,3.4665 3.4032,0.7878 13.4304,2.1548 22.2827,3.0377 8.8523,0.883 19.0911,2.2331 22.7528,3.0003 3.6618,0.7673 14.6212,2.1308 24.3544,3.0302 9.7331,0.8993 21.5646,2.2901 26.2921,3.0906 4.7276,0.8005 16.559,2.1577 26.2922,3.0159 9.7331,0.8583 22.7022,2.2268 28.8202,3.0411 6.118,0.8144 21.2088,2.3881 33.5352,3.4972 12.3264,1.109 26.8882,2.6841 32.3596,3.5 5.4713,0.8159 18.3664,2.2037 28.6557,3.0839 10.2894,0.8802 22.8034,2.2432 27.809,3.0288 5.0056,0.7856 16.8371,2.1481 26.2922,3.0278 9.455,0.8797 22.4241,2.4739 28.8202,3.5426 6.3961,1.0686 17.0899,2.6188 23.764,3.4448 25.1443,3.1119 46.1634,7.5617 69.7753,14.7715 5.0056,1.5284 14.7893,4.4697 21.7416,6.5361 6.9522,2.0664 14.6882,4.6193 17.191,5.673 2.5028,1.0538 10.4663,3.9361 17.6966,6.4052 18.3488,6.2658 36.9827,14.5897 61.1798,27.3292 24.2869,12.7868 36.6204,20.6342 52.5843,33.4577 24.278,19.5021 34.2463,29.2292 44.0285,42.9635 2.1787,3.059 6.3907,8.5197 9.3601,12.1348 2.9693,3.6152 6.9281,9.7585 8.7974,13.6517 4.1487,8.6403 16.0958,44.1604 17.7486,52.7687 0.8292,4.3186 1.043,14.6382 0.6914,33.3708 -0.52,27.7047 -1.3641,35.5405 -5.8682,54.4812 -1.1826,4.9732 -3.4612,15.1855 -5.0634,22.6939 -5.8372,27.3553 -13.2183,51.9141 -29.1058,96.8413 -9.5117,26.8982 -38.5123,88.6471 -51.0526,108.7033 -3.5609,5.6948 -7.4271,12.1745 -8.5918,14.3992 -6.6511,12.7048 -36.5452,57.0031 -48.9927,72.5993 -5.1211,6.4165 -11.5833,14.7768 -14.3605,18.5784 -11.5193,15.7691 -37.2208,46.1417 -48.5461,57.3692 -30.6177,30.3535 -77.7543,73.4392 -93.387,85.3615 -3.1428,2.3968 -12.0849,9.3396 -19.8714,15.4283 -32.0428,25.056 -39.0787,30.3424 -52.9267,39.7664 -7.9749,5.427 -16.4732,11.3124 -18.8852,13.0788 -11.8972,8.7123 -40.0712,27.1352 -56.5969,37.0087 -7.2403,4.3257 -17.0322,10.2704 -21.7597,13.2104 -4.7276,2.9398 -10.8708,6.5763 -13.6517,8.0812 -6.8489,3.7059 -18.4338,10.3747 -28.8203,16.5903 -15.8632,9.493 -49.8656,27.9077 -72.1771,39.0889 -25.9611,13.0103 -27.979,13.421 -36.5307,7.4354 z m 1490.5136,-180.8132 c -4.3912,-1.9008 -10.778,-9.5654 -14.6033,-17.5248 -3.1943,-6.6464 -3.2667,-7.0926 -2.6696,-16.4386 1.317,-20.6139 10.3258,-50.9228 28.2536,-95.0562 6.6008,-16.2495 20.2298,-49.8979 30.7192,-75.8427 10.7493,-26.5878 17.7823,-46.4476 17.9052,-50.5618 0.1012,-3.3778 -0.066,-3.5536 -3.6607,-3.8517 -5.6969,-0.4723 -10.5755,2.3725 -19.4918,11.3659 -8.3461,8.4184 -16.6097,20.0871 -22.9659,32.4296 -3.3462,6.4976 -10.9105,24.8202 -10.9105,26.4278 0,0.3766 -1.1608,2.2066 -2.5796,4.0667 -2.1262,2.7876 -3.2537,3.3819 -6.4163,3.3819 -6.6461,0 -7.7022,-2.2238 -7.6163,-16.0378 0.062,-9.9407 0.4973,-13.0562 2.8001,-20.0353 7.167,-21.7207 22.7817,-44.6809 45.3104,-66.6253 24.7231,-24.0819 43.6745,-34.5121 64.6771,-35.596 l 9.7146,-0.5013 4.0185,3.6304 c 5.7841,5.2256 7.915,12.8168 7.8526,27.9743 -0.047,11.5721 -0.071,11.6814 -4.7119,22.2472 -2.5653,5.8399 -6.9197,15.3961 -9.6765,21.236 -22.8615,48.4285 -34.2907,74.343 -32.2394,73.0996 0.7225,-0.438 6.2341,-6.1376 12.2481,-12.6659 11.341,-12.311 20.5449,-20.5637 24.7045,-22.1513 1.7534,-0.6691 3.0974,-0.4713 4.9229,0.7249 2.1471,1.4068 2.4357,2.2073 1.9913,5.5214 -1.1054,8.241 -11.0748,25.9704 -36.657,65.1904 -19.3452,29.6578 -27.7364,45.7116 -40.4354,77.3596 -14.8174,36.9273 -26.4637,56.3392 -35.3796,58.9703 -1.1124,0.3282 -3.4093,0 -5.1043,-0.7373 z m 3310.5223,-0.261 c -4.1958,-2.0728 -9.3886,-8.3501 -13.3185,-16.1 -2.522,-4.9732 -3.0312,-7.1883 -3.0418,-13.2314 -0.048,-26.7616 7.046,-48.2362 53.5509,-162.1238 9.4347,-23.105 17.7243,-44.8103 21.3885,-56.0036 3.3527,-10.2414 2.9573,-11.7492 -3.0804,-11.7492 -13.8889,0 -37.9392,31.2139 -50.639,65.7223 -3.876,10.5323 -5.228,12.1428 -10.1938,12.1428 -6.887,0 -9.6625,-5.7978 -8.6765,-18.125 2.2069,-27.5912 23.6914,-62.8163 55.6551,-91.2495 21.3736,-19.013 38.8282,-27.8036 57.2632,-28.8394 8.9099,-0.5006 9.8571,-0.367 13.0581,1.8427 4.8547,3.3512 7.1548,8.4886 8.8858,19.847 2.6144,17.155 1.8523,19.3418 -30.739,88.2096 -5.2347,11.061 -16.4858,37.1003 -16.4858,38.154 0,0.3908 6.5934,-6.1675 14.6519,-14.5742 13.6807,-14.2715 22.2873,-21.5573 25.4653,-21.5573 0.739,0 2.301,0.9575 3.4713,2.1278 2.8346,2.8346 2.1716,5.8046 -4.0233,18.0231 -6.0804,11.9926 -14.6305,26.2049 -30.4625,50.6356 -20.3645,31.425 -28.5348,46.8162 -39.9917,75.3371 -9.6847,24.1092 -16.9251,39.4004 -23.0758,48.734 -4.5272,6.87 -10.758,13.457 -12.7292,13.457 -0.4914,0 -1.4994,0.219 -2.2401,0.4867 -0.7407,0.2676 -2.8524,-0.2572 -4.6927,-1.1663 z m -1921.03609,-3.8385 c -0.55618,-0.1723 -4.65168,-1.3215 -9.10112,-2.5538 -9.20225,-2.5485 -22.7515,-9.4388 -30.61396,-15.5682 -14.96497,-11.6663 -23.58687,-29.6659 -22.24112,-46.4316 1.21207,-15.0995 20.10024,-46.221 28.04178,-46.2035 1.41138,0 4.27752,0.4809 6.36916,1.0618 5.02757,1.3961 6.87155,4.9312 19.48874,37.3595 9.06847,23.3076 14.61712,32.6007 24.00037,40.1966 6.3886,5.1717 7.89959,4.606 12.15315,-4.5505 6.90138,-14.8562 9.549,-23.9619 27.12519,-93.2866 10.36234,-40.8715 12.09883,-48.5393 10.99213,-48.5393 -0.4322,0 -6.6336,4.6005 -13.78102,10.2234 -7.14731,5.6229 -16.18048,12.3699 -20.07374,14.9935 -7.06894,4.7636 -25.19556,15.2325 -26.37456,15.2325 -0.34271,0 -2.05706,0.6653 -3.80973,1.4785 -10.21743,4.7405 -29.54457,9.6451 -38.00801,9.6451 -4.29583,0 -13.2122,-5.0146 -19.16039,-10.7758 l -5.47503,-5.303 0.57792,-9.91 c 1.09041,-18.6994 5.76697,-32.6524 17.38698,-51.8763 24.44835,-40.447 68.87762,-80.9104 103.68304,-94.4282 9.56023,-3.713 16.65182,-4.6751 34.31498,-4.6555 26.46374,0.029 43.1463,2.7651 50.06852,8.2101 3.42768,2.6961 3.36842,6.2321 -0.39965,23.8439 -5.19896,24.3001 -16.6773,72.0892 -23.26489,96.8611 -1.03541,3.8933 -2.7896,10.4916 -3.89842,14.6629 -5.27956,19.8626 -16.32064,55.9398 -22.4373,73.3147 -10.10821,28.7134 -24.18371,59.2232 -30.97173,67.1335 -9.95289,11.5986 -33.18613,20.4166 -53.37668,20.2586 -5.61186,-0.043 -10.65843,-0.2209 -11.21461,-0.3934 z m 20.9421,-173.1372 c 22.34528,-12.8889 48.28621,-38.9646 61.7496,-62.0708 7.49791,-12.8682 16.42753,-30.8207 17.82466,-35.8357 1.02236,-3.6699 0.92174,-4.2144 -1.08607,-5.8724 -2.67887,-2.2123 -7.4966,-1.6737 -16.28525,1.8206 -9.09202,3.6149 -16.28474,8.4111 -25.61026,17.0773 -20.03865,18.6221 -38.37508,43.9406 -45.83003,63.281 -3.23201,8.3848 -5.17924,21.1052 -3.78637,24.7349 1.01822,2.6533 4.39999,1.8392 13.02372,-3.1349 z m 1056.52975,172.6353 c -17.7254,-3.719 -33.4942,-12.305 -45.1663,-24.5927 -14.6651,-15.4383 -19.2785,-35.7484 -11.8897,-52.3426 5.2369,-11.7613 11.8029,-22.5056 17.089,-27.9632 5.5296,-5.709 7.1023,-6.1935 13.9408,-4.2944 3.3372,0.9268 4.2218,1.8898 7.1934,7.8315 1.8635,3.7261 6.4618,14.5107 10.2183,23.9657 11.02,27.7366 13.757,32.8749 22.138,41.5603 6.3292,6.5591 7.8024,7.6029 10.3236,7.315 2.6362,-0.3012 3.3247,-1.2265 6.6455,-8.9315 3.6897,-8.5609 7.8439,-20.9682 11.8502,-35.3932 4.509,-16.2351 22.5713,-87.7088 24.3986,-96.5471 0.6869,-3.3228 1.4718,-6.622 1.7441,-7.3315 1.0407,-2.7122 -1.7869,-0.9907 -12.9535,7.8863 -22.4325,17.8326 -44.4443,31.0001 -61.5455,36.8166 -9.1033,3.0962 -26.3609,5.9921 -30.7745,5.1641 -3.8927,-0.7302 -14.0331,-7.2373 -18.4103,-11.8137 -2.8555,-2.9854 -2.9452,-3.3882 -2.8682,-12.8699 0.1113,-13.7151 3.189,-25.4925 10.5324,-40.3041 10.1496,-20.4715 24.6384,-39.9172 45.0145,-60.4144 23.5682,-23.7083 47.499,-40.3071 68.7556,-47.6898 7.3272,-2.5449 9.7267,-2.8511 25.4512,-3.247 30.0096,-0.7556 50.9981,2.5844 56.3719,8.9709 2.3011,2.7347 2.3277,2.9968 1.0849,10.7149 -2.7856,17.2989 -20.7238,92.2386 -30.3358,126.7321 -1.4723,5.2837 -3.5001,12.5646 -4.506,16.1797 -15.4667,55.5848 -36.726,108.4474 -49.1186,122.1369 -10.0207,11.0695 -32.7942,19.5477 -51.8954,19.3199 -5.3619,-0.064 -11.3415,-0.4504 -13.2882,-0.8588 z m 23.4896,-173.2103 c 22.3551,-13.472 45.2591,-36.1242 59.1973,-58.5463 6.0045,-9.6594 16.8919,-31.0949 18.9675,-37.3442 1.7691,-5.326 1.7678,-5.345 -0.5017,-7.1827 -2.7579,-2.2331 -3.1218,-2.2433 -10.5942,-0.297 -13.6649,3.5593 -29.568,15.3165 -45.4005,33.5649 -19.2905,22.234 -30.0076,39.9784 -34.6786,57.4176 -1.4206,5.3042 -1.8577,15.8689 -0.704,17.0225 1.626,1.6261 5.4943,0.3188 13.7142,-4.6348 z m -2886.80406,67.0399 c -13.2896,-2.3806 -20.709,-4.9332 -35.468,-12.2028 -28.2982,-13.9382 -55.8679,-39.7154 -77.5689,-72.5254 -15.2895,-23.1163 -24.5761,-46.2932 -29.683,-74.0814 -2.5737,-14.004 -2.3801,-37.0119 0.4143,-49.213 7.3458,-32.075 26.3556,-63.6935 56.6665,-94.2522 22.7655,-22.9516 44.6682,-36.7186 66.9313,-42.0699 13.4654,-3.2366 19.5001,-3.307 23.9474,-0.2795 3.9194,2.6683 4.0274,3.4237 1.3026,9.1122 -2.5984,5.4246 -4.8471,7.0818 -37.3849,27.5521 -14.7387,9.2725 -29.1624,18.635 -32.0525,20.8055 -7.9817,5.9944 -15.1442,17.5447 -20.3338,32.7904 -4.7823,14.0489 -6.3983,23.7458 -6.9928,41.9589 -0.958,29.3444 2.2185,46.557 13.3199,72.1775 2.7723,6.3983 10.5691,18.841 16.5538,26.418 23.2702,29.4613 47.4408,45.668 79.5616,53.3472 7.5682,1.8094 12.2522,2.1825 27.809,2.2158 21.6279,0.046 29.428,-1.5008 44.4046,-8.8074 20.2719,-9.89 41.5745,-30.8068 56.6537,-55.6277 6.2205,-10.2389 16.6614,-31.6851 20.7428,-42.6061 13.8695,-37.1131 16.951,-83.7755 6.8099,-103.1227 -4.1225,-7.8651 -15.5563,-18.8993 -23.9481,-23.111 -15.585,-7.822 -39.7218,-10.9067 -69.6391,-8.8999 -47.6189,3.1941 -73.7045,13.9468 -99.7166,41.1041 -5.2691,5.5011 -16.7337,17.1692 -25.4768,25.9291 -17.5322,17.5657 -18.8863,18.3041 -23.5045,12.8157 -3.0629,-3.6401 -3.342,-7.9708 -1.1731,-18.2025 6.0035,-28.3206 33.723,-56.5432 77.8612,-79.2745 22.7027,-11.692 43.0063,-18.8009 68.2931,-23.9116 8.8873,-1.7962 28.4629,-2.681 40.1001,-1.8125 24.9437,1.8617 43.875,10.1259 60.9222,26.5949 13.1192,12.674 21.7198,26.9827 27.1149,45.1107 2.8302,9.5095 2.8591,9.8829 2.8591,36.9101 0,29.0137 -0.4041,32.4098 -6.6771,56.1236 -12.8082,48.418 -49.3028,107.9033 -86.5866,141.134 -10.9407,9.7515 -28.8384,21.9067 -40.0721,27.2152 -24.2066,11.4387 -50.8609,15.1866 -75.9901,10.6851 z m 1653.43684,-5.2029 c -3.85685,-0.5181 -8.40741,-1.7536 -10.11236,-2.7457 -6.70621,-3.9024 -9.56912,-18.4502 -9.6388,-48.979 -0.0192,-8.2036 -0.3876,-14.9157 -0.8196,-14.9157 -0.4321,0 -3.95879,3.2212 -7.83708,7.1582 -25.46726,25.8528 -54.26149,41.7933 -85.72843,47.4595 -22.75857,4.098 -30.38677,2.0095 -35.60057,-9.7469 -4.4636,-10.0648 -5.7485,-22.775 -3.4319,-33.9503 1.297,-6.2573 8.156,-20.4322 14.1772,-29.2987 11.82611,-17.4147 39.54459,-44.6732 66.11643,-65.0192 28.51037,-21.8304 50.03564,-33.5103 71.81109,-38.9655 17.81464,-4.463 40.88467,-1.2752 53.85337,7.4414 9.67702,6.5042 10.90244,11.2321 7.25835,28.0025 -2.89629,13.3286 -3.90722,16.9113 -12.97012,45.9639 -15.07216,48.3162 -17.94407,66.5944 -13.26731,84.4382 3.0961,11.8129 2.46135,15.6399 -3.52214,21.236 -2.48551,2.3247 -3.53103,2.5416 -12.98932,2.6956 -5.65746,0.092 -13.44196,-0.2564 -17.29881,-0.7743 z m -69.80166,-52.5589 c 13.51497,-8.1012 43.27492,-37.5116 63.87845,-63.1283 10.63567,-13.2234 19.84884,-27.5633 23.20483,-36.1172 2.29631,-5.8528 2.51525,-7.2551 1.48571,-9.5148 -1.11317,-2.4431 -1.59199,-2.6134 -6.12344,-2.178 -8.22074,0.7899 -20.64883,7.7181 -32.03565,17.8587 -12.4017,11.0446 -36.25149,35.5205 -44.46848,45.6361 -13.06649,16.0856 -22.37987,33.2133 -23.39191,43.0187 -0.83721,8.112 -0.26636,8.8782 6.21465,8.3408 3.85412,-0.3197 7.1555,-1.4703 11.23584,-3.916 z m 1580.05738,52.4889 c -9.3008,-1.3281 -11.262,-2.552 -14.5176,-9.0601 -3.0099,-6.0164 -3.6138,-10.9114 -5.5203,-44.7382 l -0.7334,-13.0144 -3.5394,3.733 c -26.4326,27.8789 -57.8306,45.7337 -89.9623,51.1583 -6.4168,1.0832 -14.0003,1.9719 -16.8524,1.9749 -12.7551,0.013 -18.4361,-6.5307 -22.1744,-25.5423 -1.6225,-8.2513 -1.63,-9.4362 -0.1088,-17.191 3.0414,-15.5037 12.8583,-32.0591 30.7745,-51.8983 33.019,-36.5634 82.5763,-72.1601 115.0088,-82.6103 9.55,-3.0772 10.9278,-3.2546 24.7753,-3.1896 13.14,0.062 15.5032,0.3516 22.7528,2.793 10.1071,3.4038 18.4124,8.9969 21.0697,14.1893 1.8404,3.596 1.9021,4.5347 0.7797,11.8668 -1.775,11.5952 -6.5469,29.4811 -15.0824,56.5315 -7.6007,24.0882 -10.8124,36.4498 -13.2968,51.1798 -2.635,15.6225 -2.6122,16.8542 0.5629,30.3377 l 2.6459,11.2366 -2.0628,4.6634 c -3.1615,7.1472 -6.6411,8.7817 -18.3802,8.6337 -5.2837,-0.067 -12.5462,-0.5407 -16.1388,-1.0538 z m -72.3363,-51.0449 c 7.8502,-4.1624 16.0982,-10.8479 29.7069,-24.0792 30.1778,-29.3408 54.9852,-61.2786 60.7255,-78.1798 2.2271,-6.5573 1.3366,-9.5422 -3.04,-10.19 -6.0911,-0.9015 -19.5251,5.5415 -30.2334,14.5002 -8.5506,7.1534 -41.6169,40.5075 -48.6294,49.0525 -13.6501,16.6332 -23.2006,35.2631 -23.2006,45.2568 0,2.7323 0.3034,5.2713 0.6742,5.6421 1.6196,1.6197 9.215,0.533 13.9968,-2.0026 z m 1208.48504,51.1149 c -3.8569,-0.5181 -8.4074,-1.7536 -10.1124,-2.7457 -6.7062,-3.9024 -9.5691,-18.4502 -9.6388,-48.979 -0.019,-8.2036 -0.3876,-14.9157 -0.8196,-14.9157 -0.4321,0 -3.9588,3.2212 -7.837,7.1582 -25.4673,25.8528 -54.2616,41.7933 -85.7285,47.4595 -22.7586,4.098 -30.3867,2.0095 -35.6005,-9.7469 -4.4755,-10.0915 -5.757,-22.8572 -3.4082,-33.9503 4.3153,-20.3803 26.5881,-48.9303 62.1192,-79.6262 33.6432,-29.0649 63.9483,-47.1403 89.9618,-53.6572 17.8146,-4.463 40.8846,-1.2752 53.8533,7.4414 9.6771,6.5042 10.9025,11.2321 7.2584,28.0025 -2.8963,13.3286 -3.9072,16.9113 -12.9701,45.9639 -15.0722,48.3162 -17.9441,66.5944 -13.2673,84.4382 3.0961,11.8129 2.4613,15.6399 -3.5222,21.236 -2.4855,2.3247 -3.531,2.5416 -12.9893,2.6956 -5.6575,0.092 -13.442,-0.2564 -17.2988,-0.7743 z m -69.8017,-52.5589 c 13.515,-8.1012 43.275,-37.5116 63.8785,-63.1283 10.6357,-13.2234 19.8488,-27.5633 23.2048,-36.1172 2.2963,-5.8528 2.5153,-7.2551 1.4857,-9.5148 -1.1131,-2.4431 -1.592,-2.6134 -6.1234,-2.178 -7.7569,0.7453 -20.5131,7.6749 -30.9525,16.8143 -11.354,9.9402 -37.3985,36.6257 -45.5517,46.6728 -13.0803,16.119 -22.3802,33.225 -23.3919,43.0264 -0.8372,8.112 -0.2663,8.8782 6.2147,8.3408 3.8541,-0.3197 7.1555,-1.4703 11.2358,-3.916 z m -3625.3205,43.8533 c -1.1124,-0.2653 -7.4831,-2.0757 -14.1573,-4.0231 -6.6742,-1.9475 -19.1882,-5.5702 -27.809,-8.0505 -17.9554,-5.1659 -20.4707,-6.4086 -25.0045,-12.3528 -5.1246,-6.7187 -6.7537,-13.7056 -6.7518,-28.9578 0,-15.0372 1.9887,-24.3115 8.066,-37.6487 12.1934,-26.7596 41.7,-59.5362 70.5354,-78.3522 17.0997,-11.1581 25.1856,-14.714 40.991,-18.0266 21.1451,-4.4317 30.682,-1.2737 37.9805,12.5769 2.4627,4.6738 2.6104,5.7934 2.6104,19.7943 l 0,14.8403 -10.5388,21.1608 c -15.9727,32.0712 -21.2072,39.0338 -39.8945,53.0649 -12.3997,9.3101 -20.6857,13.8888 -31.9825,17.6726 -4.4494,1.4904 -8.4478,2.9278 -8.8853,3.194 -1.1693,0.7118 7.0646,7.9159 13.0965,11.4586 14.2447,8.3662 24.0705,9.0447 43.6996,3.0179 7.2457,-2.2248 14.6868,-4.045 16.5358,-4.045 6.8346,0 10.5458,5.9572 7.4457,11.9519 -5.9117,11.4322 -39.0418,23.5999 -63.5069,23.3241 -5.7243,-0.065 -11.3179,-0.3343 -12.4303,-0.5996 z m 6.1677,-76.7009 c 9.6726,-5.545 28.6886,-26.2071 39.2839,-42.6846 7.8777,-12.2509 10.7372,-24.1073 7.0753,-29.3355 -2.2746,-3.2476 -9.5164,-3.0739 -16.4781,0.3953 -12.2044,6.0816 -29.901,28.2473 -39.0651,48.9302 -2.1869,4.9358 -3.0224,8.6161 -3.354,14.7748 -0.4145,7.698 -0.2964,8.3033 1.9221,9.8573 2.6679,1.8687 4.5877,1.5183 10.6159,-1.9375 z m 3301.0794,75.5754 c -61.094,-17.0919 -60.2666,-16.7377 -65.9223,-28.2252 l -3.3474,-6.7991 0.051,-17.2128 c 0.046,-16.028 0.2444,-17.8042 2.8685,-25.8082 13.166,-40.159 63.6823,-91.4887 103.2608,-104.9234 10.1757,-3.4539 22.6849,-5.5778 29.8382,-5.0661 10.6922,0.765 15.9417,4.4943 21.336,15.1574 2.7916,5.5182 2.9269,6.4074 2.9269,19.2322 l 0,13.4467 -8.6788,17.6777 c -13.8144,28.1381 -19.6081,37.1757 -30.5182,47.6059 -15.1564,14.4896 -32.0645,24.7618 -48.0221,29.1749 -2.6418,0.7306 -4.8033,1.6819 -4.8033,2.114 0,0.8437 7.5245,7.2462 12.8732,10.9538 5.5558,3.8512 16.7399,7.2112 24.0026,7.2112 6.0739,0 15.649,-2.2092 28.5314,-6.5829 7.0366,-2.389 11.9264,-1.9961 14.407,1.1575 7.4882,9.5197 -6.8316,21.1294 -36.1711,29.3256 -13.0217,3.6376 -32.6408,4.3559 -42.6319,1.5608 z m 11.953,-76.696 c 13.9555,-9.0444 39.5296,-40.5679 44.4924,-54.8428 1.7677,-5.0845 1.5391,-14.7821 -0.394,-16.7152 -2.4919,-2.4917 -9.7929,-2.0046 -15.8339,1.0566 -22.5686,11.4364 -51.5343,62.8916 -41.2134,73.2125 2.6084,2.6083 5.7588,1.9488 12.9489,-2.7111 z m -1861.27987,73.5638 c -5.71146,-4.5148 -8.62979,-8.7817 -10.29903,-15.0587 -0.95522,-3.5918 -0.69988,-8.3084 1.45092,-26.7978 1.43555,-12.3412 2.9796,-25.0738 3.43112,-28.2946 0.45162,-3.2208 0.46537,-6.076 0.0303,-6.3446 -0.8277,-0.5115 -7.06915,6.6465 -15.49396,17.7695 -17.38001,22.9463 -33.87913,38.1335 -55.69169,51.2637 -14.20989,8.5538 -18.14238,10.4147 -22.00894,10.4147 -6.16025,0 -17.16745,-8.9664 -23.58678,-19.2136 -2.52111,-4.0244 -2.83389,-5.4275 -2.70505,-12.1348 0.28527,-14.8513 14.11119,-63.9101 30.06637,-106.6854 5.47432,-14.6762 13.38805,-29.4207 17.83304,-33.2254 6.75071,-5.7784 29.54083,-18.1687 34.86307,-18.9542 5.03079,-0.7423 10.04278,4.4689 15.26157,15.8681 2.20409,4.8145 2.5295,6.6784 2.0792,11.9086 -0.53595,6.2241 -2.42828,11.1921 -20.46499,53.7287 -11.70475,27.6036 -17.68581,43.1949 -17.68581,46.1028 0,3.9034 2.97688,5.474 7.52835,3.9718 6.76982,-2.2342 15.56687,-13.7641 35.89119,-47.0408 10.17789,-16.6641 10.58289,-17.3004 21.56491,-33.8764 15.11596,-22.816 22.61164,-30.2313 34.26765,-33.9002 5.5623,-1.7509 5.80197,-1.7461 9.10112,0.1805 2.23352,1.3044 4.37947,3.9807 6.29636,7.8528 2.48936,5.0284 2.98153,7.4267 3.41909,16.6588 0.73841,15.577 -0.83042,27.5856 -8.8651,67.8597 -3.68909,18.4914 -3.65915,28.2203 0.14016,45.6162 l 1.23876,5.6722 -4.98225,6.361 c -9.5848,12.237 -26.48781,24.2608 -34.10606,24.2608 -2.61384,0 -4.89216,-1.0532 -8.57386,-3.9634 z m -1818.42583,0.5298 c -9.5463,-2.8759 -14.8448,-5.62 -18.7078,-9.6891 -2.8423,-2.9936 -3.0307,-3.6856 -2.9855,-10.9633 0.041,-6.6521 0.5231,-8.7468 3.3538,-14.5815 3.998,-8.2404 16.4675,-21.9313 22.7408,-24.9681 10.0566,-4.8684 15.1167,-1.856 28.2661,16.8273 9.6322,13.6859 16.4783,17.6678 19.6257,11.415 2.6208,-5.2064 0.6928,-22.9436 -3.8575,-35.4891 -2.3938,-6.6001 -9.2223,-20.4169 -11.4472,-23.1626 -1.8467,-2.2789 -9.8009,-15.9921 -12.611,-21.7416 -3.7796,-7.7329 -3.5097,-15.5167 0.7978,-23.0176 7.24,-12.6073 32.1438,-36.3607 49.8129,-47.512 13.5153,-8.5296 24.0388,-11.6508 33.0742,-9.8094 6.3151,1.287 11.4821,4.0339 13.7923,7.3323 1.857,2.6511 2.0821,18.1585 0.3804,26.1873 -2.2105,10.429 -7.5487,17.2603 -14.5079,18.5658 -4.2821,0.8033 -11.9519,-1.6216 -17.9182,-5.6651 -2.3978,-1.625 -4.9004,-2.9629 -5.5615,-2.973 -0.6612,-0.01 -1.5047,1.9992 -1.8744,4.4652 -0.7898,5.2666 0.843,9.3395 10.3817,25.8954 15.1907,26.3657 19.9432,38.9046 19.9147,52.5424 -0.044,21.0472 -13.5994,39.8044 -39.4575,54.5992 -21.3865,12.2364 -54.1363,17.4892 -73.2119,11.7425 z m 498.3219,0.095 c -7.682,-2.9551 -15.7191,-8.9128 -20.2079,-14.9798 -8.4267,-11.3891 -12.9769,-28.9936 -10.8825,-42.1037 0.901,-5.6406 8.5652,-26.7927 16.7016,-46.0947 1.3677,-3.2443 2.2287,-6.3159 1.9136,-6.8258 -0.3151,-0.5099 -2.1533,-0.927 -4.0849,-0.927 -4.2816,0 -10.3495,-2.4087 -11.1189,-4.4137 -1.6093,-4.1936 6.2705,-12.7546 24.19,-26.2813 6.488,-4.8975 11.7963,-9.3311 11.7963,-9.8525 0,-1.4876 26.4508,-54.2299 31.1471,-62.1068 2.3168,-3.8857 5.1076,-8.1114 6.2019,-9.3908 1.7918,-2.0944 12.6365,-7.2808 15.2244,-7.2808 0.5724,0 5.301,-1.8202 10.5082,-4.0449 15.3608,-6.5629 21.5593,-5.3373 24.5203,4.8484 2.6407,9.0838 1.5262,14.5558 -5.7662,28.3084 -15.2321,28.7263 -25.1065,48.5162 -24.507,49.1157 0.3568,0.3569 3.8721,0.665 7.8117,0.6849 7.5672,0.038 17.9813,2.0771 20.2578,3.9664 2.1212,1.7605 2.7612,7.5255 1.4247,12.8334 -1.0009,3.9749 -2.6841,6.3178 -9.3864,13.0663 -10.3879,10.4591 -13.3034,11.5585 -30.6517,11.5585 l -12.5179,0 -3.5768,7.8371 c -7.7371,16.9523 -11.6236,30.3137 -11.8391,40.7022 -0.11,5.3022 0.3518,7.4394 2.3883,11.0537 6.2094,11.0198 20.2246,11.9265 46.7344,3.0233 11.0042,-3.6957 17.9813,-1.4262 17.9813,5.8489 0,15.4951 -35.03,37.6146 -66.8713,42.2257 -14.3251,2.0744 -20.4414,1.9022 -27.391,-0.7711 z m 125.105,-0.058 c -6.5087,-3.0444 -11.2164,-7.8387 -14.5389,-14.8064 -2.4057,-5.045 -2.6521,-6.6894 -2.6521,-17.6966 0,-11.6751 0.1483,-12.518 3.9154,-22.2472 8.4252,-21.7601 18.9877,-48.6388 19.8692,-50.5618 0.5098,-1.1124 2.7164,-6.5731 4.9035,-12.1349 6.6119,-16.8136 12.2082,-29.0699 15.5177,-33.9856 3.3836,-5.0253 4.6731,-5.8534 18.4908,-11.8726 5.0056,-2.1806 12.725,-5.6915 17.1543,-7.8021 14.0988,-6.7183 20.058,-4.6897 20.0332,6.8197 -0.013,5.8853 -1.5452,10.0144 -11.4426,30.8312 -3.3143,6.9704 -6.0258,12.8087 -6.0258,12.9738 0,0.1653 -2.4489,5.4664 -5.442,11.7804 -11.3649,23.9741 -14.568,34.3295 -15.4453,49.9328 l -0.6268,11.1496 3.7135,3.2605 c 2.3137,2.0315 4.7932,3.2607 6.5773,3.2607 3.4936,0 11.7621,-3.314 19.5506,-7.8357 11.1967,-6.5003 16.3913,-7.1066 19.0074,-2.218 1.7298,3.2319 0.3408,10.1611 -3.0587,15.2595 -2.9377,4.4056 -10.358,10.6969 -17.4168,14.7666 -11.2022,6.4587 -57.0877,23.5167 -63.2166,23.5008 -2.0962,-0.01 -6.0864,-1.074 -8.8673,-2.3747 z m 302.8652,0.4103 c -20.2681,-5.5251 -26.6489,-12.9932 -22.9974,-26.9157 2.445,-9.322 7.2671,-17.1264 15.9935,-25.8854 8.3791,-8.4103 13.1068,-10.7312 19.439,-9.5433 4.6748,0.877 8.0611,4.0949 17.5573,16.6842 9.8705,13.0856 9.396,12.5373 12.7249,14.704 7.2469,4.7166 10.8645,-1.8792 8.991,-16.3926 -2.1659,-16.779 -6.683,-27.9314 -20.6381,-50.9543 -10.8584,-17.9137 -12.5286,-23.8823 -9.3131,-33.2784 6.4246,-18.7731 52.3221,-57.153 73.6404,-61.5786 11.2837,-2.3425 25.1578,3.3059 26.5666,10.8158 1.8163,9.6815 -1.3591,27.9492 -6.1217,35.2178 -1.8136,2.7679 -8.527,6.5165 -11.6701,6.5165 -3.787,0 -13.1296,-3.85 -17.2373,-7.1034 l -4.0379,-3.198 -1.62,3.8771 c -2.1029,5.0332 -1.4541,6.89 8.7812,25.1322 19.6617,35.0424 24.0281,49.811 19.6718,66.5361 -4.6754,17.9499 -20.3361,34.5816 -43.2125,45.8918 -10.5682,5.225 -16.9487,7.2302 -30.1131,9.4643 -14.2409,2.4167 -27.5623,2.4203 -36.4045,0.01 z m 140.1108,-5.1211 -6.9128,-7.1605 0.5719,-6.8213 c 0.507,-6.0473 4.0827,-21.1326 9.9252,-41.8722 1.0575,-3.7542 2.7821,-9.8975 3.8323,-13.6517 6.9671,-24.9052 22.0769,-70.3166 26.5387,-79.76 1.6396,-3.4702 4.5651,-7.7003 6.5013,-9.4002 4.1617,-3.6541 20.1624,-11.5938 26.9899,-13.3928 4.4812,-1.1808 5.1642,-1.0896 10.1479,1.3546 7.6078,3.7312 11.6448,7.4565 12.8234,11.8336 1.3336,4.9527 0.7988,6.5596 -8.7922,26.4153 -8.2816,17.145 -21.7779,47.2735 -22.9893,51.3203 -0.3747,1.2514 -0.4446,2.2753 -0.1553,2.2753 0.2892,0 9.0797,-10.5572 19.5345,-23.4604 36.0538,-44.4977 53.3541,-61.3712 69.9017,-68.1773 14.838,-6.1031 26.6892,0.027 29.4293,15.2223 2.586,14.3409 0.7273,31.0223 -6.9931,62.7637 -6.8336,28.0946 -10.1272,43.6533 -10.1272,47.8394 0,1.626 1.5609,6.089 3.4687,9.9179 5.7394,11.5193 5.7293,11.8416 -0.5601,17.9319 -5.3917,5.2209 -17.5667,12.6085 -30.2119,18.3317 -4.7035,2.1288 -8.6034,3.0874 -13.7113,3.37 -7.1207,0.3939 -7.1461,0.3859 -10.3383,-3.2497 -5.3387,-6.0805 -6.7992,-12.8818 -6.7523,-31.4446 l 0.041,-16.1798 11.3356,-33.57 c 10.6178,-31.4447 13.1811,-41.7671 10.3716,-41.7671 -2.4231,0 -19.2156,21.7056 -60.2405,77.8652 -29.3785,40.2166 -26.4788,37.1516 -41.5834,43.956 -7.1181,3.2067 -13.4347,6.0194 -14.037,6.2506 -0.6024,0.2311 -4.2061,-2.8019 -8.0081,-6.7402 z m 1014.21495,4.6865 c -10.5575,-2.9481 -15.9188,-5.8208 -19.4077,-10.3992 -2.4529,-3.219 -2.8369,-4.6314 -2.8207,-10.3746 0.028,-9.8554 5.3643,-20.1263 16.1385,-31.0615 15.5853,-15.818 23.1789,-14.2102 38.3428,8.1181 9.0975,13.3958 14.7925,17.2272 19.1419,12.8779 1.8765,-1.8766 2.1435,-3.2113 1.9987,-9.9922 -0.3661,-17.1305 -5.9568,-32.2752 -21.247,-57.5562 -9.9328,-16.4229 -12.1851,-22.7885 -10.3644,-29.2916 4.9333,-17.6197 44.242,-53.8225 68.578,-63.1596 11.009198,-4.2239 23.680498,-2.4361 30.057798,4.2411 2.8994,3.0358 2.9514,3.2872 2.8676,13.8865 -0.089,11.2936 -1.7627,18.6995 -5.7029,25.2364 -2.1967,3.6446 -8.3741,7.3 -12.3363,7.3 -3.7553,0 -12.540298,-3.734 -16.890098,-7.1791 l -3.8188,-3.0246 -1.5665,3.0292 c -2.309,4.4652 -1.9255,6.9165 2.3091,14.7588 2.1021,3.8933 7.5679,13.9705 12.146,22.3939 16.901298,31.0971 19.077398,46.1836 9.532898,66.0893 -7.598298,15.847 -29.361598,32.8169 -51.948698,40.507 -9.3911,3.1974 -27.3253,6.0088 -37.8192,5.9288 -6.1458,-0.047 -11.7281,-0.8031 -17.191,-2.3284 z m 163.885598,0.3663 c -6.7314,-2.6283 -12.5201,-8.5762 -17.5696,-18.0532 -7.0912,-13.3089 -8.7154,-19.849 -8.6957,-35.0161 0.017,-13.2372 1.542,-21.8476 6.1778,-34.8876 2.1993,-6.1862 11.4739,-27.5451 12.5523,-28.9075 0.4784,-0.6042 1.5373,-2.9908 2.3534,-5.3036 1.2969,-3.676 1.3,-4.8102 0.024,-9.0139 -0.8026,-2.6448 -1.4641,-6.0252 -1.4702,-7.512 -0.023,-5.6994 9.2711,-13.1479 27.997,-22.4375 26.7615,-13.2759 35.9328,-14.694 38.8024,-5.9993 1.9824,6.0067 1.111,9.0112 -8.8852,30.6345 -12.9121996,27.9311 -20.5780996,48.9158 -22.9445996,62.8083 -1.4821,8.7003 -1.4945,10.4249 -0.1267,17.5734 1.7614,9.2064 4.5953,14.0286 9.8531,16.766 8.5652,4.4595 22.7772996,1.0442 31.6327996,-7.6015 8.5757,-8.3726 9.0009,-12.4864 4.2909,-41.5125 -1.6087,-9.9139 -2.1476,-17.8701 -2.1918,-32.3596 -0.057,-18.4979 0.047,-19.5097 2.7499,-27.1681 5.2763,-14.9443 14.5934,-24.5771 30.9764,-32.0259 16.1986,-7.3648 22.1486,-0.1972 24.432,29.4322 1.3274,17.2221 0.7225,46.0726 -1.1858,56.5596 -0.6579,3.6152 -2.1976,8.8483 -3.4215,11.6292 -2.6335,5.9837 -11.6615,16.2146 -15.0611,17.0677 -1.6946,0.4254 -3.5138,2.7464 -6.2286,7.9463 -8.0374,15.3957 -18.3734,28.026 -28.3587,34.654 -13.6464,9.058 -37.5317996,18.7208 -57.3761,23.2114 -8.838,2 -12.1909,1.9114 -18.3269,-0.4843 z m 169.822302,0.1512 c -7.8105,-2.2499 -15.0045,-6.4918 -20.7596,-12.2409 -5.4018,-5.3962 -7.4251,-9.3649 -9.21,-18.0646 -1.1738,-5.7215 -1.0713,-8.0599 0.9523,-21.7416 2.1858,-14.7791 5.2353,-27.0679 8.8229,-35.5554 5.654,-13.3761 19.3651,-31.5258 38.8331,-51.4048 14.2078,-14.5077 22.7196,-21.3897 35.65911,-28.8312 5.9005,-3.3935 10.9348,-7.3271 15.3074,-11.9608 7.6298,-8.0854 20.2406,-15.4998 26.363,-15.4998 10.7625,0 27.6394,16.5492 36.7606,36.0468 2.5542,5.4598 2.7636,6.862 2.6962,18.0543 -0.1411,23.4268 -5.2107,52.9614 -11.4367,66.6273 -6.236,13.6883 -16.3331,26.5172 -30.8479,39.194 -32.7059,28.5644 -68.97161,42.3389 -93.14041,35.3767 z m 55.03131,-35.0457 c 8.3758,-4.4014 20.4666,-16.4096 27.7377,-27.5481 4.4005,-6.7412 15.8265,-27.5214 15.8265,-28.7833 0,-0.3115 -3.8744,-4.8161 -8.6098,-10.0104 -7.2592,-7.9628 -9.6613,-11.5554 -15.3138,-22.9028 l -6.7042,-13.4586 -3.4642,4.8485 c -11.6935,16.3664 -28.59811,54.6438 -31.58711,71.523 -2.2666,12.7996 -0.8929,27.6321 2.7695,29.9048 3.1752,1.9705 11.84241,0.3696 19.34541,-3.5731 z m 743.845,34.9882 c -15.7659,-5.6179 -25.6633,-17.0212 -30.7711,-35.4532 -4.3707,-15.7726 -2.9622,-23.2223 10.8667,-57.4694 4.4957,-11.134 6.646,-17.6427 5.9037,-17.8698 -0.6424,-0.1964 -3.3829,-0.5707 -6.0902,-0.8317 -3.5129,-0.3387 -5.6624,-1.2145 -7.5068,-3.0589 l -2.5843,-2.5844 2.7035,-3.9013 c 3.8071,-5.4936 8.1849,-9.5466 21.5716,-19.9718 6.4276,-5.0056 12.3021,-10.2387 13.0545,-11.6292 0.7522,-1.3904 7.3505,-14.5871 14.6629,-29.3258 21.2951,-42.9225 21.6166,-43.3612 34.8188,-47.5162 2.2247,-0.7002 8.231,-3.037 13.34734,-5.1931 11.7722,-4.9607 17.343,-5.2391 21.5072,-1.0748 3.3319,3.3319 5.6478,12.5049 4.6051,18.2413 -0.3687,2.0289 -3.8867,9.8321 -7.8177,17.3405 -15.0358,28.7195 -24.05774,46.5401 -24.05774,47.5206 0,0.5948 3.2002,1.0187 7.69124,1.0187 8.8627,0 19.4248,2.4217 21.2962,4.8828 2.0406,2.6835 1.6224,10.843 -0.799,15.5893 -3.0815,6.0404 -13.006,15.5486 -19.2761,18.4675 -4.8007,2.2349 -6.71934,2.504 -18.01344,2.5267 -6.9522,0.014 -13.1048,0.3597 -13.6723,0.7683 -3.2242,2.3216 -12.9549,29.193 -14.7532,40.7411 -2.1482,13.7951 0.7067,21.2742 9.6758,25.3482 7.3017,3.3168 18.2767,2.221 37.25694,-3.7197 11.817,-3.6987 15.87,-3.3225 18.4748,1.7147 5.8682,11.3478 -16.8984,31.0505 -48.28684,41.7885 -8.2499,2.8223 -25.2956,5.6398 -33.4357,5.5266 -2.9236,-0.04 -7.591,-0.8846 -10.3719,-1.8755 z m 124.15504,-0.092 c -17.3404,-7.7067 -23.0406,-31.491 -13.3245,-55.5988 1.0087,-2.5028 7.1038,-17.9748 13.5448,-34.3821 6.441,-16.4073 12.3766,-31.2654 13.1902,-33.0179 0.8138,-1.7527 1.4795,-3.5041 1.4795,-3.8922 0,-0.3881 0.6499,-2.1394 1.4441,-3.8921 10.4246,-23.0011 12.2523,-25.6438 20.0239,-28.9532 6.0811,-2.5895 9.9084,-4.3088 22.0204,-9.8921 16.6661,-7.6827 20.0918,-7.9058 22.8259,-1.4864 3.2527,7.6371 1.9966,11.5006 -16.5163,50.7969 -16.7657,35.5877 -19.4197,43.5232 -20.1952,60.3852 l -0.5681,12.3515 3.4004,3.1764 c 3.0252,2.8261 3.8988,3.1203 7.9199,2.6671 2.8063,-0.3163 9.0216,-2.8485 16.396,-6.6797 16.3344,-8.4862 21.1141,-8.1127 21.1141,1.6503 0,9.243 -8.4024,18.5908 -24.196,26.918 -7.8188,4.1225 -17.1508,7.8248 -47.9278,19.0147 -9.0889,3.3045 -14.5745,3.5265 -20.6313,0.8346 z m 468.9349,-1.6344 c -8.1105,-4.5074 -24.965,-15.5626 -29.3443,-19.2476 l -3.249,-2.7339 0.6907,-10.1768 c 2.018,-29.728 7.2976,-49.5557 24.1168,-90.5702 1.9386,-4.7275 5.6698,-13.8286 8.2914,-20.2247 2.6217,-6.3961 6.3543,-15.4972 8.2949,-20.2247 1.9406,-4.7275 4.3624,-10.8708 5.3818,-13.6517 1.0195,-2.7809 3.0456,-8.2416 4.5026,-12.1348 8.3959,-22.436 12.5564,-38.3759 13.3291,-51.0674 0.3217,-5.2838 1.1886,-10.5764 1.9263,-11.7614 1.1136,-1.7886 16.3632,-11.4971 18.0591,-11.4971 0.2864,0 4.1373,-1.7674 8.5579,-3.9276 12.1424,-5.9337 30.9268,-13.2283 35.7758,-13.8929 3.4051,-0.4667 4.8361,-0.163 6.8248,1.4485 2.294,1.859 2.5047,2.6945 2.3854,9.4584 -0.187,10.6094 -4.9416,23.3891 -28.1558,75.6777 -7.0373,15.8511 -13.4492,30.2991 -14.2487,32.1067 -0.7993,1.8076 -2.1126,4.7655 -2.9183,6.573 -20.5228,46.0434 -27.7104,65.1691 -31.4772,83.7595 -2.991,14.7611 -1.1012,20.6978 8.0888,25.4093 7.7016,3.9486 13.9224,1.4561 39.7445,-15.9241 8.6421,-5.8168 16.7199,-10.5761 17.9508,-10.5761 3.5293,0 6.1052,3.6321 5.9922,8.4493 -0.2937,12.5105 -17.5683,30.6753 -46.7382,49.1466 -17.7075,11.213 -36.2854,19.2788 -44.3303,19.2465 -1.583,-0.01 -5.8359,-1.6554 -9.4511,-3.6645 z m -3146.0427,-187.7325 c -5.2041,-3.9956 -5.3517,-12.0716 -0.3741,-20.4685 5.3816,-9.0782 13.7557,-18.974 17.6942,-20.9091 4.3963,-2.1601 20.3007,-7.5188 25.998,-8.7595 5.3569,-1.1667 12.067,0.2188 15.1685,3.1319 3.366,3.1615 3.0706,10.8359 -0.8619,22.3948 -3.9484,11.606 -7.381,17.1516 -11.9783,19.3519 -5.029,2.407 -28.4669,6.5353 -36.9632,6.5108 -3.9804,-0.011 -7.7809,-0.5597 -8.6832,-1.2523 z m 2712.9223,-0.7542 c -1.8192,-1.431 -2.8142,-3.4337 -3.2932,-6.6286 -0.5893,-3.9291 -0.2329,-5.466 2.5142,-10.8429 3.7114,-7.2642 14.3303,-20.8868 17.6358,-22.6241 1.2461,-0.6551 7.7033,-3.0747 14.349,-5.377 13.4032,-4.6432 20.292,-5.3478 25.5749,-2.6159 6.4798,3.3508 6.6403,11.5733 0.5305,27.1746 -6.2578,15.979 -7.9563,17.207 -28.8905,20.885 -15.6825,2.7554 -24.9426,2.7647 -28.4207,0.029 z m -3139.0705,-16.8088 c -7.1367,-3.7339 -22.7528,-21.6081 -22.7528,-26.043 0,-4.6089 9.2998,-14.7901 22.089,-24.1825 8.882,-6.523 12.7228,-7.5572 18.5286,-4.989 5.6639,2.5054 17.246,13.2357 19.5679,18.1287 2.4623,5.1888 1.5782,14.4596 -1.9768,20.7308 -7.9582,14.0383 -24.9249,21.8646 -35.4559,16.355 z m 3309.2148,-1.1852 c -7.2638,-4.61 -21.1812,-21.3705 -21.1812,-25.5082 0,-4.9088 22.3998,-25.3295 31.5258,-28.7403 4.68,-1.7491 4.7827,-1.7418 10.1124,0.7151 6.5566,3.0225 15.4291,10.8494 17.9907,15.8705 3.1224,6.1206 3.3791,10.0416 1.1296,17.2578 -5.5847,17.9157 -26.505,28.7017 -39.5773,20.4051 z M -2503.146,2632.9101 c -54.4432,-4.6838 -85.3628,-11.8156 -117.3033,-27.0565 -18.9204,-9.0282 -31.8437,-17.6153 -52.3315,-34.7725 l -7.8371,-6.5631 0,-74.009 0,-74.009 16.8469,-0.6644 c 9.2659,-0.3654 48.8558,-0.6644 87.9775,-0.6644 l 71.1307,0 0.016,26.0393 c 0.017,27.7267 1.266,48.4964 3.1351,52.1336 4.8499,9.438 21.4747,17.8586 35.2758,17.8675 4.9005,0 13.3236,-1.9481 17.0744,-3.9555 4.4341,-2.3731 10.4009,-8.5589 12.775,-13.2438 7.0457,-13.904 9.1459,-38.6197 4.6989,-55.299 -6.2074,-23.2823 -25.3934,-40.2789 -57.8067,-51.2099 -5.8399,-1.9695 -30.6404,-9.7722 -55.1123,-17.3395 -71.2934,-22.0454 -75.8727,-23.7719 -88.9888,-33.5508 -27.8192,-20.7411 -46.3932,-54.5048 -51.5266,-93.6649 -3.1705,-24.1866 -1.4464,-68.4744 3.4841,-89.4914 5.5851,-23.8078 15.0654,-45.4329 26.703,-60.9109 8.0829,-10.7502 24.0568,-26.1541 34.0192,-32.8052 35.244,-23.5297 82.4996,-34.9066 144.9898,-34.9066 31.8463,0 58.4882,2.0733 85.0269,6.617 48.9691,8.3839 84.3661,23.9086 117.5632,51.5618 l 9.3609,7.7976 -0.2598,68.8938 -0.2598,68.8938 -82.6685,0.2588 -82.6686,0.2587 -0.044,-5.8205 c -0.024,-3.2013 -0.4265,-17.0837 -0.8931,-30.8498 -0.8237,-24.3097 -0.9267,-25.1899 -3.5814,-30.6157 -3.5937,-7.3454 -6.8088,-11.0425 -12.5252,-14.403 -4.4896,-2.639 -5.301,-2.7611 -18.349,-2.7611 -13.0526,0 -13.8581,0.1214 -18.3551,2.765 -8.3032,4.8811 -15.92,15.3627 -18.4151,25.3416 -3.2829,13.1291 -2.5134,29.3172 1.8462,38.8399 4.9321,10.7731 19.2936,22.9364 36.055,30.5364 6.9525,3.1524 32.1531,11.7997 50.442,17.3086 25.9399,7.8135 55.1841,17.5593 68.7641,22.9161 24.6434,9.721 38.8143,18.6486 54.1096,34.0887 24.5601,24.7928 36.9818,51.8445 42.0752,91.6307 2.0422,15.9534 1.4879,55.6036 -1.0039,71.7978 -5.1431,33.4261 -13.8683,57.1308 -29.7768,80.8988 -6.8168,10.1844 -25.3578,28.4554 -36.6355,36.1018 -8.6042,5.8337 -23.4517,14.0338 -29.5719,16.3322 -1.5048,0.5651 -6.3765,2.4238 -10.826,4.1303 -13.5068,5.1805 -35.6771,10.6835 -53.0898,13.1777 -15.9551,2.2854 -76.6765,3.8298 -93.5394,2.379 z m 1550.22464,-3.0459 c -15.16004,-1.3503 -44.64333,-7.1372 -59.15734,-11.6114 -40.949,-12.6232 -71.3217,-34.28 -92.3332,-65.8367 -11.5971,-17.4176 -19.9155,-38.6016 -26.0961,-66.4584 -2.9686,-13.3796 -3.7715,-49.3125 -3.8073,-170.3933 -0.033,-111.2277 0.8795,-156.1957 3.3833,-166.7278 16.4058,-69.0096 73.744,-113.2373 162.33649,-125.2176 13.15516,-1.779 78.07731,-1.7883 90.5056,-0.013 34.5603,4.9367 68.83008,17.0481 95.33942,33.6941 25.86337,16.2404 43.74243,35.2643 56.1147,59.7078 7.70118,15.215 8.15249,16.4322 13.97964,37.7032 l 3.02905,11.057 0.2068,148.2127 0.2068,148.2127 -2.36073,15.1686 c -3.90671,25.1012 -8.06441,40.6964 -15.50185,58.146 -24.83232,58.2614 -77.59001,89.8632 -157.08124,94.0916 -16.31943,0.8681 -60.09582,1.0364 -68.76404,0.2644 z m 42.01159,-124.6172 c 6.88176,-2.6149 13.08003,-7.8822 18.072,-15.3577 l 4.12988,-6.1846 0,-157.1722 0,-157.1723 -2.11631,-4.1482 c -3.07466,-6.0269 -10.72881,-13.7808 -16.57153,-16.7876 -6.87731,-3.5393 -21.47793,-4.4087 -28.5675,-1.7012 -6.32245,2.4146 -12.59424,8.4083 -16.95166,16.2002 l -3.59484,6.4282 0.27728,157.039 0.27739,157.039 3.132,5.5618 c 3.57633,6.3507 12.14575,13.8262 18.75872,16.3641 6.14316,2.3577 16.79551,2.3077 23.15457,-0.1085 z m 1984.50527,124.6163 c -8.0446,-0.7182 -35.588,-5.3497 -43.9888,-7.3969 -23.6712,-5.7682 -48.31694,-15.9547 -64.39584,-26.6157 -3.9936,-2.6479 -11.0634,-8.1387 -15.7109,-12.2018 -26.9457,-23.5575 -42.7577,-51.4569 -52.5014,-92.635 -2.7064,-11.4374 -3.0903,-15.2872 -4.0346,-40.4495 -1.3578,-36.1818 -0.5189,-281.1015 1.0048,-293.3405 2.1681,-17.4158 12.0143,-42.2156 23.5459,-59.3057 9.2669,-13.7337 26.4278,-30.1222 42.8223,-40.8949 27.7971,-18.2651 68.84404,-31.1751 108.95674,-34.2687 18.0972,-1.3957 68.409,-0.7488 80.6501,1.037 41.4612,6.0486 83.7415,23.5788 111.3914,46.1848 27.7838,22.7156 43.9005,49.3949 53.3659,88.3408 2.0574,8.4654 2.0917,10.8004 2.2617,154.2135 0.1894,159.6996 0.256,157.6176 -5.9298,185.5618 -18.4625,83.404 -73.3301,126.185 -168.6211,131.4759 -16.2257,0.9009 -59.9309,1.0882 -68.8164,0.2949 z m 44.0518,-125.4891 c 6.1271,-2.9661 12.4818,-9.0832 16.682,-16.0583 l 3.4797,-5.7786 0,-156.3976 0,-156.3976 -2.6071,-4.954 c -3.4714,-6.5965 -9.902,-13.1259 -16.1008,-16.3479 -6.8409,-3.5559 -21.4343,-4.4336 -28.5475,-1.717 -6.2818,2.3991 -12.7423,8.5389 -17.0046,16.1606 l -3.4929,6.2458 0,153.7254 c 0,98.0911 0.3654,155.6522 1.0097,159.0492 1.7479,9.2165 11.6054,19.9824 21.7432,23.7469 5.9467,2.2082 19.0282,1.5357 24.8383,-1.2769 z M 79.550548,2625.8061 c -7.187,-0.6635 -33.1514,-5.442 -40.9551,-7.5375 -44.1375996,-11.8519 -77.9998,-34.6593 -99.6028,-67.0862 -16.5815,-24.8895 -26.135,-53.1982 -30.0312,-88.9888 -1.6506,-15.1626 -1.5608,-266.5441 0.1044,-292.2472 0.8648,-13.3486 1.6568,-18.3031 4.5264,-28.3146 8.1933,-28.5852 15.9778,-42.1269 35.5022,-61.7589 16.1236,-16.2124 32.8735,-27.141 56.6724004,-36.9762 16.7824996,-6.9356 47.6406996,-13.9697 72.2667996,-16.4732 31.789902,-3.2317 80.466202,-1.2687 114.269712,4.6083 46.2724,8.0449 88.251,28.3715 121.0718,58.6247 l 4.3214,3.9833 0,70.7657 0,70.7657 -83.8011,0 -83.80101,0 -0.4472,-33.7078 c -0.4327,-32.6262 -0.5208,-33.851 -2.7459,-38.1741 -7.2983,-14.1795 -22.7132,-21.7973 -38.6636,-19.1069 -10.857002,1.8312 -18.321202,7.7782 -24.087402,19.191 -1.6722,3.3097 -1.8244,11.6736 -2.3458,128.9326 -0.3067,68.9663 -0.2567,140.6376 0.111,159.2697 l 0.6687,33.8764 2.7549,4.6863 c 3.8254,6.5071 11.9704,13.5212 18.567902,15.9896 7.1362,2.6701 19.096,2.8127 26.1689,0.3122 6.806,-2.4062 16.7863,-11.7822 19.6654,-18.4747 2.0641,-4.7982 2.2163,-7.1441 2.8142,-43.3746 l 0.6323,-38.3021 -3.4479,-1.8537 c -2.4996,-1.3439 -6.5073,-1.9998 -14.5715,-2.3847 l -11.1236,-0.5309 0,-55.1124 0,-55.1123 96.06751,0 96.0674,0 0.2565,134.4252 0.2566,134.4252 -2.2791,2.4648 c -4.5353,4.9052 -22.735,19.2186 -32.9563,25.9191 -35.3458,23.1706 -70.2629,33.7167 -122.23311,36.9182 -16.0139,0.9865 -70.229302,1.2306 -79.673802,0.3588 z m 300.252512,-13.3597 c -0.2316,-0.2317 -0.4211,-21.6745 -0.4211,-47.6505 l 0,-47.2292 3.3471,-2.2934 c 3.8176,-2.616 10.3163,-10.9317 12.6364,-16.1696 2.2306,-5.0357 3.0441,-60.4336 3.1468,-214.262 l 0.083,-124.7676 -4.2978,-8.0746 c -2.692,-5.0578 -7.2257,-11.2057 -12.1348,-16.4551 l -7.8371,-8.3805 0,-44.1757 0,-44.1757 151.9382,0.6692 c 171.5404,0.7556 189.8042,1.1982 207.0506,5.0185 14.9519,3.312 21.8202,5.6746 31.191,10.7292 13.7071,7.3935 24.2757,17.0485 38.6783,35.335 13.8818,17.6252 21.254,31.1426 26.612,48.7951 l 2.6865,8.8512 -0.3445,170.6432 c -0.3433,170.0472 -0.3521,170.6766 -2.5075,180.2498 -8.7306,38.7757 -19.6341,58.1141 -42.7203,75.7681 -20.0691,15.3468 -39.3798,24.7688 -63.2023,30.8377 -14.8353,3.7793 -21.5213,4.5321 -50.0561,5.6357 -24.7979,0.959 -292.9862,1.9641 -293.8486,1.1012 z m 239.3894,-120.3198 c 15.643,-0.7408 17.1568,-0.987 21.4143,-3.4821 6.2771,-3.6786 10.1584,-8.7213 12.4246,-16.1429 1.8371,-6.0163 1.9084,-11.5618 1.8095,-140.7574 -0.1048,-136.7851 -0.3918,-148.2724 -3.9174,-156.8042 -1.4676,-3.5519 -10.2301,-11.3646 -16.2491,-14.4879 -5.8007,-3.01 -18.79,-4.4771 -35.0457,-3.9583 -12.0725,0.3853 -14.3729,0.7294 -16.7551,2.5064 l -2.7613,2.0598 -0.7646,41.3534 c -0.4204,22.7443 -0.648,95.7325 -0.5056,162.196 0.2384,111.2058 0.396,121.1451 1.9771,124.6348 l 1.718,3.7921 9.9112,-0.056 c 5.4511,-0.031 17.486,-0.415 26.7441,-0.8534 z m -2674.86656,74.7958 c 0,-27.0771 0.3985,-46.488 0.9862,-48.0337 0.5424,-1.4267 1.6891,-2.5939 2.5482,-2.5939 4.5388,0 15.3192,-9.6752 18.806,-16.8781 3.645,-7.5296 4.0638,-28.6795 3.7453,-189.1793 -0.3455,-174.0394 1.076,-154.9539 -11.5416,-154.9539 -9.5144,0 -17.2864,2.7999 -21.6883,7.8134 -6.739,7.6754 -6.4563,4.8106 -7.0131,71.063 l -0.5056,60.1686 -59.9157,0.2608 -59.9158,0.2608 0,-127.4258 0,-127.4258 242.4438,0.2549 242.4438,0.2548 0.2568,127.171 0.2566,127.1709 -59.9196,-0.2608 -59.9196,-0.2608 -0.5182,-58.6517 c -0.5696,-64.4615 -0.3174,-61.9345 -6.9322,-69.4683 -4.7091,-5.3634 -11.8894,-8.055 -21.9866,-8.2418 -5.71,-0.1056 -8.8022,0.264 -9.6977,1.1593 -1.0659,1.0657 -1.3675,32.8889 -1.5935,168.1464 l -0.2788,166.832 2.7143,4.7749 c 5.2021,9.1513 13.1674,15.9506 20.8489,17.7968 l 2.7809,0.6684 0,47.5088 0,47.5089 -108.2022,0 -108.2023,0 0,-45.4398 z m 410.5618,-1.685 0,-47.1247 6.3202,-6.8453 c 3.4761,-3.765 7.7993,-9.7484 9.6071,-13.2966 l 3.2869,-6.4513 -4e-4,-162.1371 -4e-4,-162.1371 -3.2163,-6.4626 c -1.769,-3.5544 -6.547,-10.1254 -10.618,-14.6021 l -7.4016,-8.1394 0,-49.051 c 0,-42.2142 0.2071,-49.1305 1.4859,-49.6212 0.8173,-0.3137 74.8777,-0.1632 164.5786,0.3342 l 163.0928,0.9045 11.101,3.8182 c 24.4079,8.395 38.0482,16.9319 56.7359,35.5089 20.9078,20.7839 31.133,36.7942 39.3492,61.6123 2.8177,8.5112 3.7121,13.2535 4.5358,24.051 2.7912,36.5904 -0.2171,71.6995 -8.103,94.5673 -8.5428,24.7724 -20.2351,40.4788 -40.6331,54.5824 -11.225,7.7613 -14.9521,11.393 -14.9521,14.5695 0,3.1869 5.9421,8.8191 20.1506,19.0994 22.7392,16.4526 30.4185,25.9802 35.4653,44.0016 1.9209,6.859 2.3907,11.9366 3.0876,33.3708 0.4522,13.9045 0.8529,33.7511 0.8907,44.1036 0.1012,27.6679 1.8166,34.0109 11.8073,43.6547 l 5.4524,5.2629 0,46.7759 0,46.776 -98.0899,0 -98.0899,0 -0.096,-52.8371 c -0.1506,-82.9136 -1.2603,-128.7834 -3.2417,-133.9999 -3.6744,-9.674 -14.7143,-22.5423 -22.4488,-26.167 -4.5557,-2.135 -6.4791,-2.3705 -19.4307,-2.3794 -13.4883,-0.01 -14.4434,0.1187 -15.4903,2.075 -0.7824,1.4619 -1.0197,16.6437 -0.794,50.8146 l 0.3218,48.7297 2.702,4.5506 c 1.4862,2.5028 5.0128,6.8087 7.8371,9.5687 l 5.1351,5.0182 0,47.3133 0,47.3133 -105.1686,0 -105.1685,0 0,-47.1248 z m 245.4343,-285.072 c 13.8131,-4.1021 18.4982,-18.688 18.4982,-57.5889 0,-33.4853 -3.2043,-47.2778 -13.1434,-56.5747 -2.658,-2.4862 -6.5398,-4.9674 -8.7174,-5.572 -5.0519,-1.4028 -40.3133,-1.4521 -42.9143,-0.06 -4.9536,2.6511 -5.0002,3.2184 -5.0002,60.9233 l 0,53.9751 2.2758,2.138 c 3.9105,3.6736 6.8136,4.1519 25.6025,4.2178 13.4847,0.047 19.6147,-0.3348 23.3988,-1.4585 z m 777.6836,331.4523 -5.81461,-0.3677 0,-46.9234 0,-46.9235 4.3556,-2.9967 c 5.56897,-3.8316 11.11904,-9.9808 13.99853,-15.5099 2.10621,-4.0441 2.3217,-6.2589 3.12937,-32.1523 0.47711,-15.295 0.68461,-87.1938 0.46103,-159.7753 -0.459,-149.056 -0.32592,-146.2336 -7.45372,-158.1116 -2.05089,-3.4178 -7.06055,-9.5223 -11.13239,-13.5656 l -7.40336,-7.3513 -2.1e-4,-43.7161 -2e-4,-43.7161 11.88223,0.2187 c 6.53521,0.1203 52.91838,0.2341 103.07366,0.2528 l 91.19133,0.034 2.12107,5.8146 c 1.16656,3.1981 2.53982,6.7247 3.0517,7.8371 0.51189,1.1124 5.3191,13.1714 10.6828,26.7978 16.03476,40.7365 30.84098,78.2042 31.96911,80.8988 0.58217,1.3905 5.58465,13.9045 11.11652,27.809 5.53196,13.9045 10.47903,26.191 10.99345,27.3034 0.51441,1.1124 2.94593,7.0281 5.40323,13.1461 7.12992,17.7509 14.8674,36.0882 16.96096,40.1966 1.53566,3.0134 2.5116,3.7921 4.7524,3.7921 1.55093,0 3.62053,-0.5854 4.599,-1.3009 1.66804,-1.2197 1.75905,-4.8332 1.45729,-57.8933 -0.36697,-64.5491 0.38609,-59.0595 -9.92457,-72.3435 l -5.04202,-6.496 -0.0101,-48.2918 -0.0101,-48.2917 93.28648,0.258 93.2866,0.2581 0.2628,47.2344 0.2627,47.2343 -2.2852,1.2163 c -6.8843,3.664 -15.9688,13.7831 -18.2013,20.2741 -0.8496,2.47 -1.3083,63.4299 -1.7222,228.8724 l -0.564,225.5056 -92.03131,0.2581 -92.03126,0.258 -4.4546,-10.3704 c -2.45002,-5.7037 -5.46654,-12.6457 -6.70338,-15.4266 -1.23694,-2.7809 -5.51154,-12.5646 -9.49914,-21.7416 -3.98771,-9.177 -7.85387,-18.0506 -8.59157,-19.7191 -0.73779,-1.6685 -4.60951,-10.5421 -8.6041,-19.7191 -3.99448,-9.177 -7.67103,-17.5955 -8.17007,-18.7079 -0.49915,-1.1123 -6.40173,-14.5365 -13.11685,-29.8314 -6.71511,-15.295 -12.6273,-28.7191 -13.13818,-29.8315 -0.51087,-1.1123 -5.55694,-12.4888 -11.21349,-25.2809 -15.55493,-35.1767 -16.0921,-36.0875 -19.72001,-33.4357 -1.86351,1.3621 -1.9527,3.5776 -2.27447,56.4913 -0.32683,53.7248 -0.28467,55.1724 1.72132,59.1044 2.94037,5.7636 6.74232,9.9763 11.33121,12.5554 l 3.9875,2.2412 -0.26262,47.0835 -0.26272,47.0835 -84.94381,0.064 c -46.7191,0.035 -87.56039,-0.101 -90.75843,-0.3033 z m 2017.6685,-46.4078 0,-47.1524 6.3202,-6.7263 c 3.4762,-3.6995 7.7992,-9.6207 9.6068,-13.1583 l 3.2865,-6.4319 0,-162.29 0,-162.2901 -3.1314,-6.3608 c -1.7223,-3.4985 -6.2729,-9.7701 -10.1124,-13.937 l -6.9809,-7.5761 0,-50.2417 0,-50.2418 161.0393,0.6434 c 88.5716,0.3539 162.5877,0.8848 164.4802,1.1799 5.2695,0.8218 23.9579,7.2149 32.1366,10.9937 12.0886,5.5853 25.2244,15.2894 38.3269,28.3143 20.9714,20.8471 31.1543,36.7447 39.2493,61.2756 4.0944,12.4078 5.6394,25.975 5.6561,49.6641 0.044,63.3795 -14.4481,99.4602 -49.7565,123.8733 -5.966,4.1251 -11.7966,8.707 -12.9569,10.182 -4.1549,5.282 -1.1336,9.5526 14.6901,20.7648 25.7342,18.2343 33.4241,27.3825 38.8506,46.2181 2.5554,8.8697 2.938,15.083 4.0794,66.236 0.9821,44.0104 0.9002,43.6006 10.8043,54.0993 l 6.4343,6.8208 0,46.6467 0,46.6467 -97.9236,0 -97.9235,0 -0.6572,-88.736 c -0.7291,-98.4239 -0.5569,-95.961 -7.4354,-106.3671 -5.6081,-8.4842 -12.4675,-15.2957 -18.0266,-17.9009 -4.5557,-2.135 -6.4791,-2.3705 -19.4307,-2.3794 -13.4587,-0.01 -14.4452,0.1221 -15.4833,2.0618 -0.7726,1.4437 -1.0133,16.6916 -0.794,50.3089 0.3607,55.2889 -0.1971,51.7779 9.8949,62.2876 l 6.094,6.3463 0,47.1894 0,47.1894 -105.1686,0 -105.1685,0 0,-47.1523 z m 245.3216,-285.011 c 8.4545,-2.5108 13.1062,-8.7603 16.2937,-21.8907 1.5266,-6.2887 1.8094,-11.9975 1.7972,-36.2831 -0.013,-26.417 -0.1989,-29.5111 -2.2264,-37.1057 -1.2167,-4.557 -3.3072,-10.0202 -4.6457,-12.1404 -3.5003,-5.5451 -10.0553,-11.1236 -14.5306,-12.3664 -5.0061,-1.3901 -40.269,-1.4254 -42.8523,-0.043 -4.9537,2.651 -5.0002,3.2184 -5.0002,60.9233 l 0,53.975 2.2758,2.138 c 1.2517,1.1759 3.4132,2.5916 4.8034,3.1459 4.1724,1.6638 38.2116,1.3912 44.0851,-0.3531 z"
       id="path3347"
       inkscape:connector-curvature="0" />
  </g>
</svg>
